<svg xmlns="http://www.w3.org/2000/svg" xmlns:xlink="http://www.w3.org/1999/xlink" viewBox="0 0 607.12 600"><defs><style>.cls-1{fill:url(#linear-gradient);}.cls-2{fill:#ccccd1;}.cls-3{fill:#151d79;}.cls-4{fill:#fff;}.cls-5,.cls-6{fill:#5ccfff;}.cls-5{fill-rule:evenodd;}.cls-7{fill:#4134ec;}.cls-8{fill:#4497b8;}.cls-9{fill:#ee6d32;}.cls-10{fill:#f79d56;}.cls-11{fill:url(#linear-gradient-2);}.cls-12{fill:#f1eff3;}.cls-13{fill:#fffefb;}.cls-14{fill:#e94501;}.cls-15{fill:#261aab;}.cls-16{fill:#e94c04;}.cls-17{fill:url(#linear-gradient-3);}.cls-18{opacity:0.4;}.cls-19{fill:#ee6e2e;}.cls-20{fill:#f5c826;}</style><linearGradient id="linear-gradient" x1="-36.06" y1="551.17" x2="518.91" y2="89.19" gradientUnits="userSpaceOnUse"><stop offset="0" stop-color="#5671ec"/><stop offset="1" stop-color="#5755e9"/></linearGradient><linearGradient id="linear-gradient-2" x1="199.16" y1="249.57" x2="355.55" y2="249.57" gradientUnits="userSpaceOnUse"><stop offset="0" stop-color="#f6c726"/><stop offset="1" stop-color="#e94c04"/></linearGradient><linearGradient id="linear-gradient-3" x1="380.73" y1="227.75" x2="393.7" y2="227.75" xlink:href="#linear-gradient-2"/></defs><title>background-withdesk</title><g id="Layer_2" data-name="Layer 2"><g id="layer_1-2" data-name="layer 1"><path class="cls-1" d="M435.19,0c117.13,66.26,264.07,279.52,96.14,600H0V0Z"/><rect class="cls-2" x="450.99" y="248.3" width="59.18" height="11.57" transform="translate(225.4 734.08) rotate(-89.87)"/><rect class="cls-3" x="479.67" y="270.54" width="1.73" height="11.57" transform="translate(203.1 756.23) rotate(-89.87)"/><path class="cls-4" d="M486.31,278.21h0l-11.57,0a1,1,0,0,1-1-1v-1.73a1,1,0,0,1,1-1h0l11.57,0a1,1,0,0,1,.71.29,1.05,1.05,0,0,1,.29.71v1.73a1,1,0,0,1-.29.71A1,1,0,0,1,486.31,278.21Z"/><rect class="cls-3" x="479.69" y="264.56" width="1.73" height="11.58" transform="translate(209.14 750.31) rotate(-89.87)"/><path class="cls-4" d="M486.34,272.23h0l-11.57,0a1,1,0,0,1-1-1v-1.73a1.06,1.06,0,0,1,.3-.71,1,1,0,0,1,.7-.29h0l11.57,0a1,1,0,0,1,1,1v1.73a1,1,0,0,1-.3.71A1,1,0,0,1,486.34,272.23Z"/><polygon class="cls-5" points="486.29 283.67 493.5 283.69 493.5 244.98 486.29 244.96 486.29 283.67"/><path class="cls-3" d="M549.75,290H465a3.19,3.19,0,0,1-3.19-3.19h0a3.19,3.19,0,0,1,3.19-3.19h84.8a3.19,3.19,0,0,1,3.19,3.19h0A3.19,3.19,0,0,1,549.75,290Z"/><path class="cls-6" d="M478.91,348.39H376.23a7.51,7.51,0,0,1-7.51-7.51h0a7.51,7.51,0,0,1,7.51-7.51H478.91a7.51,7.51,0,0,1,7.51,7.51h0A7.51,7.51,0,0,1,478.91,348.39Z"/><path class="cls-3" d="M397.73,348.39H44.45a7.51,7.51,0,0,1-7.51-7.51h0a7.51,7.51,0,0,1,7.51-7.51H397.73a7.51,7.51,0,0,1,7.51,7.51h0A7.51,7.51,0,0,1,397.73,348.39Z"/><rect class="cls-3" x="57.75" y="348.39" width="17.23" height="118.11"/><rect class="cls-7" x="49.14" y="348.39" width="17.22" height="118.11"/><rect class="cls-8" x="392.85" y="348.39" width="79.14" height="118.11"/><rect class="cls-7" x="281.01" y="348.39" width="19.46" height="118.11"/><rect class="cls-3" x="300.48" y="348.39" width="75.15" height="118.11"/><rect class="cls-7" x="300.48" y="380.58" width="75.15" height="2"/><rect class="cls-7" x="300.48" y="409.33" width="75.15" height="2"/><path class="cls-9" d="M339.69,395.37a3.06,3.06,0,1,1-3.05-3.05A3.06,3.06,0,0,1,339.69,395.37Z"/><path class="cls-9" d="M339.69,364.1a3.06,3.06,0,1,1-3.05-3.05A3.06,3.06,0,0,1,339.69,364.1Z"/><path class="cls-7" d="M323.25,438.5h0a4.24,4.24,0,0,0,4.22,4.23h21.16a4.24,4.24,0,0,0,4.22-4.23h0a4.23,4.23,0,0,0-4.22-4.22H327.47A4.23,4.23,0,0,0,323.25,438.5Z"/><rect class="cls-7" x="375.63" y="348.39" width="17.23" height="118.11"/><path class="cls-10" d="M201.82,360.86A5.5,5.5,0,0,0,197,358H169.8a26.31,26.31,0,0,1-4.45,11H187s-33.45,44.41-43.41,68.41c-1.17,2.8-.87,6,1.69,7.59a5.51,5.51,0,0,0,2.94.86c1.82,0,5.45-1.3,6.5-2.95,12.2-19.22,46.93-76.46,46.93-76.46A5.51,5.51,0,0,0,201.82,360.86Z"/><path class="cls-10" d="M196.71,323.5a54.44,54.44,0,0,1-7.61-.3c.62-1.27,3.38-8.68,1.66-10.42-.6-.61-.78-.32-1-.23-.82.39-2.93,7.83-9.64,10.78l1.44,9.91c3.42,0,10.26,1,11.77,1.07,10,.42,10.76-.08,12.61-3.68C208.52,325.62,202,323.38,196.71,323.5Z"/><path class="cls-8" d="M197.12,352.75c-6.31-1.47-16.74-2.9-27.64-4a27.91,27.91,0,0,1,.54,7.4,26.72,26.72,0,0,1-6,14.65c-.78,1-1.6,2-2.46,2.89l15.69-.09c-26,33.22-33.06,56.05-33.52,56.9a29.19,29.19,0,0,0,18.28,5.35s29.46-45.79,39.85-62C208.1,364.18,203.39,354.21,197.12,352.75Z"/><path class="cls-3" d="M177.84,336.34c-4.43,1.05-33.5,2-45.09-.16-3.37-.62-9.7-5.85-10.17-9.25-1.71-12.49-4.09-42.15,1.1-50.31,4.8-7.54,14.19-8.66,15.28-4.72,4.08,14.75.44,47.81.44,47.81s26.4-2.27,38.81,2.32C182.84,323.74,183,335.11,177.84,336.34Z"/><path class="cls-3" d="M144.32,437.67c5.08,3.41,12.11,2.58,12.33,2.58,0,0,15.36,8.12,23.39,8.1,3.43,0,4.74,7.48-3.16,7.5a117.1,117.1,0,0,1-25.29-2.58l-.55,2.55-10.1,0c0-1.6-2.21-6.07-2.22-9.9C138.71,442.69,139.83,434.64,144.32,437.67Z"/><polygon class="cls-8" points="294.04 332.19 260.67 332.19 265.52 301.92 289.19 301.92 294.04 332.19"/><path class="cls-2" d="M314.76,333.37H240a3.28,3.28,0,0,1-3.28-3.28h0a3.28,3.28,0,0,1,3.28-3.28h74.8a3.28,3.28,0,0,1,3.28,3.28h0A3.28,3.28,0,0,1,314.76,333.37Z"/><path class="cls-2" d="M356.51,201.58H198.2a6.61,6.61,0,0,0-6.61,6.62V300a6.61,6.61,0,0,0,6.61,6.61H356.51a6.62,6.62,0,0,0,6.62-6.61V208.2A6.62,6.62,0,0,0,356.51,201.58Z"/><rect class="cls-11" x="199.16" y="208.46" width="156.39" height="82.2"/><rect class="cls-3" x="199.16" y="208.46" width="19.46" height="82.2"/><rect class="cls-3" x="345.21" y="208.46" width="10.35" height="82.2"/><rect class="cls-12" x="201.27" y="221.57" width="6.15" height="5.57"/><rect class="cls-12" x="210.01" y="221.57" width="6.15" height="5.57"/><rect class="cls-12" x="201.27" y="229.7" width="6.15" height="5.57"/><rect class="cls-12" x="210.01" y="229.7" width="6.15" height="5.57"/><rect class="cls-12" x="201.27" y="237.82" width="6.15" height="5.57"/><rect class="cls-12" x="210.01" y="237.82" width="6.15" height="5.57"/><rect class="cls-12" x="201.27" y="245.94" width="6.15" height="5.57"/><rect class="cls-12" x="210.01" y="245.94" width="6.15" height="5.57"/><rect class="cls-12" x="201.27" y="254.06" width="6.15" height="5.57"/><rect class="cls-12" x="210.01" y="254.06" width="6.15" height="5.57"/><rect class="cls-12" x="201.27" y="262.18" width="6.15" height="5.57"/><rect class="cls-12" x="210.01" y="262.18" width="6.15" height="5.57"/><rect class="cls-12" x="201.27" y="274.17" width="6.15" height="12.1"/><rect class="cls-12" x="210.01" y="274.17" width="6.15" height="12.1"/><rect class="cls-12" x="347.31" y="278.84" width="6.15" height="7.43"/><rect class="cls-12" x="347.31" y="265.06" width="6.15" height="7.43"/><rect class="cls-12" x="347.31" y="251.28" width="6.15" height="7.43"/><rect class="cls-12" x="347.31" y="237.5" width="6.15" height="7.43"/><rect class="cls-12" x="347.31" y="223.72" width="6.15" height="7.43"/><rect class="cls-13" x="199.16" y="208.46" width="156.39" height="10.72"/><rect class="cls-12" x="203.38" y="211.35" width="20.78" height="4.95" rx="2.18"/><rect class="cls-12" x="227.49" y="211.35" width="20.77" height="4.95" rx="2.18"/><rect class="cls-12" x="251.59" y="211.35" width="20.77" height="4.95" rx="2.18"/><rect class="cls-12" x="275.7" y="211.35" width="20.77" height="4.95" rx="2.18"/><rect class="cls-12" x="299.81" y="211.35" width="20.77" height="4.95" rx="2.18"/><path class="cls-12" d="M326.35,271.16l2.22.46,1-4.7-2.22-.46a13.16,13.16,0,0,0-1-5.34l1.89-1.25-2.63-4-1.89,1.24a13.24,13.24,0,0,0-3.44-2.56c-.33-.17-.67-.33-1-.48l0,0,.46-2.22-4.69-1-.46,2.23a10.13,10.13,0,0,0-1.46,0,12.92,12.92,0,0,0-3.89,1l-1.25-1.9-4,2.63,1.25,1.9a13.07,13.07,0,0,0-3.06,4.5l-2.22-.46-1,4.69,2.22.46a13,13,0,0,0,1,5.35l-1.89,1.25,2.62,4,1.9-1.25a12.84,12.84,0,0,0,4.51,3.06l-.46,2.23,4.69,1,.46-2.23a11.81,11.81,0,0,0,1.46-.05,12.92,12.92,0,0,0,3.89-1l1.24,1.9,4-2.63-1.24-1.9A13.17,13.17,0,0,0,326.35,271.16Zm-11.26,4.69a9.83,9.83,0,0,1-2.85-.17,9.69,9.69,0,0,1,1.08-19.13,9.82,9.82,0,0,1,2.85.16,10.45,10.45,0,0,1,1.59.48,9.69,9.69,0,0,1-2.67,18.66Zm-.88,1A10.68,10.68,0,0,1,303.74,264a10.63,10.63,0,0,1,12.63-8.3,10.38,10.38,0,0,1,1.75.52,9.12,9.12,0,0,1,1.15.53,10.69,10.69,0,0,1-4.09,20h0C314.86,276.87,314.53,276.88,314.21,276.88Zm0-19.37a6.85,6.85,0,0,0-.79,0,8.69,8.69,0,0,0,1.58,17.3h0a8.64,8.64,0,0,0,7.72-6.89,8.73,8.73,0,0,0-4.39-9.41,7,7,0,0,0-.92-.43,10.36,10.36,0,0,0-1.44-.43A8.69,8.69,0,0,0,314.2,257.51Z"/><path class="cls-12" d="M272.37,261.07l3.09.64,1.35-6.52-3.09-.64a18.14,18.14,0,0,0-1.42-7.44l2.64-1.74-3.66-5.57-2.64,1.74a18.38,18.38,0,0,0-4.77-3.57c-.46-.24-.95-.46-1.44-.66l-.06,0,.65-3.1-6.53-1.35-.64,3.1a17.14,17.14,0,0,0-2,.07,18.14,18.14,0,0,0-5.41,1.35l-1.73-2.64-5.57,3.66,1.73,2.63a18.33,18.33,0,0,0-4.25,6.27l-3.09-.64-1.35,6.53,3.09.63a18.32,18.32,0,0,0,1.42,7.45L236,263l3.66,5.57,2.64-1.74a18.08,18.08,0,0,0,6.27,4.26l-.64,3.09,6.52,1.35.64-3.09a19.48,19.48,0,0,0,2-.07,18.37,18.37,0,0,0,5.41-1.35l1.74,2.64,5.56-3.66-1.73-2.64A18.19,18.19,0,0,0,272.37,261.07Zm-15.66,6.52a13.29,13.29,0,0,1-4-.22,13.48,13.48,0,1,1,4,.22Zm-1.22,1.06A14.48,14.48,0,1,1,258.41,240a16.8,16.8,0,0,1,2.38.71,13.3,13.3,0,0,1,1.54.72,14.54,14.54,0,0,1,7.32,15.68,14.38,14.38,0,0,1-12.85,11.48C256.36,268.63,255.93,268.65,255.49,268.65Zm0-26.95c-.37,0-.75,0-1.12.05a12.48,12.48,0,0,0,2.27,24.85h0a12.4,12.4,0,0,0,11.07-9.9,12.53,12.53,0,0,0-6.3-13.51,10.54,10.54,0,0,0-1.33-.61A13.1,13.1,0,0,0,258,242,12.8,12.8,0,0,0,255.47,241.7Z"/><path class="cls-14" d="M255.48,281.69l-1,0a1,1,0,1,1,.07-2,25,25,0,0,0,2.87-.05,1,1,0,0,1,.15,2C256.88,281.66,256.18,281.69,255.48,281.69Zm-5.9-.66a.86.86,0,0,1-.22,0c-1-.23-2-.52-3-.85a1,1,0,0,1-.61-1.28,1,1,0,0,1,1.27-.61,25.83,25.83,0,0,0,2.77.79,1,1,0,0,1-.23,2Zm12.82-.25a1,1,0,0,1-.26-2c.92-.25,1.84-.56,2.73-.9a1,1,0,0,1,.73,1.86,28.9,28.9,0,0,1-2.94,1Zm-20.21-2.64a1,1,0,0,1-.5-.13,25.64,25.64,0,0,1-2.59-1.7,1,1,0,0,1-.21-1.39,1,1,0,0,1,1.4-.22,26.83,26.83,0,0,0,2.4,1.58,1,1,0,0,1,.37,1.36A1,1,0,0,1,242.19,278.14Zm27.48-.54a1,1,0,0,1-.85-.47,1,1,0,0,1,.31-1.38,22.5,22.5,0,0,0,2.34-1.66,1,1,0,0,1,1.41.16,1,1,0,0,1-.16,1.4,27.52,27.52,0,0,1-2.52,1.8A1,1,0,0,1,269.67,277.6ZM236,273.2a1,1,0,0,1-.73-.32,29.72,29.72,0,0,1-2-2.38,1,1,0,1,1,1.61-1.19,23.94,23.94,0,0,0,1.84,2.21,1,1,0,0,1-.06,1.41A1,1,0,0,1,236,273.2Zm39.7-.78a1,1,0,0,1-.76-1.65,26,26,0,0,0,1.75-2.28,1,1,0,0,1,1.65,1.13,28,28,0,0,1-1.89,2.45A1,1,0,0,1,275.68,272.42Zm-44.18-5.77a1,1,0,0,1-.9-.56,27.38,27.38,0,0,1-1.19-2.86,1,1,0,1,1,1.88-.66,25.57,25.57,0,0,0,1.11,2.65,1,1,0,0,1-.47,1.33A.94.94,0,0,1,231.5,266.65Zm48.4-.95a1,1,0,0,1-.4-.08,1,1,0,0,1-.52-1.32,23.48,23.48,0,0,0,1-2.69,1,1,0,0,1,1.92.59,29.67,29.67,0,0,1-1.08,2.9A1,1,0,0,1,279.9,265.7Zm-50.75-6.62a1,1,0,0,1-1-.86,28.66,28.66,0,0,1-.29-3.08,1,1,0,0,1,1-1,1,1,0,0,1,1,1,23,23,0,0,0,.27,2.87,1,1,0,0,1-.84,1.13Zm52.8-1h-.11a1,1,0,0,1-.88-1.1,27.6,27.6,0,0,0,.16-2.87V254a1,1,0,1,1,2,0v.11a26.55,26.55,0,0,1-.18,3.09A1,1,0,0,1,282,258Zm-52.82-6.9H229a1,1,0,0,1-.85-1.13,26.45,26.45,0,0,1,.63-3,1,1,0,1,1,1.93.51,27.11,27.11,0,0,0-.58,2.82A1,1,0,0,1,229.13,251.14ZM281.64,250a1,1,0,0,1-1-.81,24.74,24.74,0,0,0-.7-2.79,1,1,0,0,1,1.91-.59,28,28,0,0,1,.76,3,1,1,0,0,1-.8,1.17A.55.55,0,0,1,281.64,250Zm-50.19-6.45a1,1,0,0,1-.43-.1,1,1,0,0,1-.47-1.33,27.46,27.46,0,0,1,1.5-2.71,1,1,0,0,1,1.37-.32,1,1,0,0,1,.32,1.38,26.67,26.67,0,0,0-1.39,2.51A1,1,0,0,1,231.45,243.55Zm47.54-1a1,1,0,0,1-.88-.53,26.76,26.76,0,0,0-1.5-2.45,1,1,0,0,1,1.65-1.14,27.5,27.5,0,0,1,1.61,2.65,1,1,0,0,1-.88,1.47ZM235.91,237a1,1,0,0,1-.68-.27,1,1,0,0,1,0-1.41,28.11,28.11,0,0,1,2.22-2.15,1,1,0,0,1,1.31,1.51,24.27,24.27,0,0,0-2.06,2A1,1,0,0,1,235.91,237Zm38.34-.83a1,1,0,0,1-.71-.29,24.25,24.25,0,0,0-2.15-1.91,1,1,0,1,1,1.25-1.57,28.09,28.09,0,0,1,2.31,2.06,1,1,0,0,1-.7,1.71ZM242.1,232a1,1,0,0,1-.5-1.86,28.66,28.66,0,0,1,2.76-1.41,1,1,0,1,1,.8,1.83,26.64,26.64,0,0,0-2.55,1.31A1,1,0,0,1,242.1,232Zm25.75-.56a1.12,1.12,0,0,1-.47-.11,22.72,22.72,0,0,0-2.61-1.19,1,1,0,0,1,.72-1.87,26.55,26.55,0,0,1,2.82,1.29,1,1,0,0,1,.42,1.35A1,1,0,0,1,267.85,231.46Zm-18.37-2.36a1,1,0,0,1-.23-2,28.34,28.34,0,0,1,3.06-.53,1,1,0,0,1,.22,2,24.62,24.62,0,0,0-2.83.49Zm10.87-.23-.18,0a24.94,24.94,0,0,0-2.85-.36,1,1,0,1,1,.14-2,28.94,28.94,0,0,1,3.07.39,1,1,0,0,1-.18,2Z"/><path class="cls-14" d="M312.21,286.34h-.1a19.48,19.48,0,0,1-3.12-.58,1,1,0,1,1,.51-1.93,18,18,0,0,0,2.82.52,1,1,0,0,1-.11,2Zm5-.13a1,1,0,0,1-1-.85,1,1,0,0,1,.84-1.14,18.14,18.14,0,0,0,2.78-.67,1,1,0,1,1,.62,1.9,19.56,19.56,0,0,1-3.09.74Zm-12.63-2.33a1,1,0,0,1-.5-.13,22.12,22.12,0,0,1-2.62-1.8,1,1,0,0,1-.14-1.41,1,1,0,0,1,1.4-.15A17.94,17.94,0,0,0,305.1,282a1,1,0,0,1-.5,1.87Zm20.1-.55a1,1,0,0,1-.55-1.83,19.3,19.3,0,0,0,2.27-1.75,1,1,0,0,1,1.41.07,1,1,0,0,1-.07,1.42,21.55,21.55,0,0,1-2.52,1.93A1,1,0,0,1,324.7,283.33Zm-26.05-4.8a1,1,0,0,1-.81-.41,20.15,20.15,0,0,1-1.66-2.7,1,1,0,0,1,1.78-.91,18.47,18.47,0,0,0,1.5,2.43,1,1,0,0,1-.22,1.4A1,1,0,0,1,298.65,278.53Zm31.7-.85a.94.94,0,0,1-.55-.17,1,1,0,0,1-.29-1.38,18.49,18.49,0,0,0,1.37-2.51,1,1,0,1,1,1.82.81,20.84,20.84,0,0,1-1.51,2.79A1,1,0,0,1,330.35,277.68Zm-35-6.45a1,1,0,0,1-1-.79,20.78,20.78,0,0,1-.42-3.14,1,1,0,0,1,.95-1.06,1,1,0,0,1,1.05.95,18.1,18.1,0,0,0,.37,2.84,1,1,0,0,1-.77,1.18A.75.75,0,0,1,295.38,271.23Zm37.84-1h-.16a1,1,0,0,1-.83-1.15,19.43,19.43,0,0,0,.22-2.85,1,1,0,0,1,1-1,1,1,0,0,1,1,1v.08a19.61,19.61,0,0,1-.25,3.16A1,1,0,0,1,333.22,270.21Zm-37.85-7a.76.76,0,0,1-.21,0,1,1,0,0,1-.77-1.18,20.49,20.49,0,0,1,.9-3,1,1,0,1,1,1.86.72,17.22,17.22,0,0,0-.8,2.74A1,1,0,0,1,295.37,263.24Zm37.41-1.1a1,1,0,0,1-1-.73,18.44,18.44,0,0,0-1-2.7,1,1,0,0,1,1.82-.82,19,19,0,0,1,1.07,3,1,1,0,0,1-.7,1.23Zm-34.17-6.22a1,1,0,0,1-.59-.19,1,1,0,0,1-.22-1.4,20.49,20.49,0,0,1,2.06-2.41,1,1,0,0,1,1.41,0,1,1,0,0,1,0,1.42,18.37,18.37,0,0,0-1.85,2.18A1,1,0,0,1,298.61,255.92Zm30.51-.88a1,1,0,0,1-.78-.37,18.39,18.39,0,0,0-2-2.07,1,1,0,0,1,1.33-1.49,19.76,19.76,0,0,1,2.19,2.29,1,1,0,0,1-.77,1.64Zm-24.58-4.49a1,1,0,0,1-.5-1.86,19.82,19.82,0,0,1,2.86-1.38,1,1,0,0,1,.72,1.87,18,18,0,0,0-2.58,1.24A1,1,0,0,1,304.54,250.55Zm18.35-.53a1,1,0,0,1-.45-.11,18.94,18.94,0,0,0-2.65-1.09,1,1,0,0,1-.65-1.25,1,1,0,0,1,1.26-.65,20.21,20.21,0,0,1,2.94,1.21,1,1,0,0,1-.45,1.89Zm-10.75-2a1,1,0,0,1-.11-2,19.79,19.79,0,0,1,3.17-.09,1,1,0,0,1-.1,2,18.26,18.26,0,0,0-2.86.08Z"/><path class="cls-14" d="M321.29,249.31a1,1,0,0,1-.32-.06l-2.84-1a1,1,0,0,1-.62-1.27,1,1,0,0,1,1.27-.62l2.84,1a1,1,0,0,1-.33,1.95Zm-7.57-2.58a.86.86,0,0,1-.32,0l-2.84-1a1,1,0,1,1,.64-1.89l2.84,1a1,1,0,0,1-.32,1.94Zm-7.57-2.57a1,1,0,0,1-.33-.06l-2.84-1a1,1,0,0,1,.65-1.9l2.84,1a1,1,0,0,1-.32,1.95Zm-7.58-2.58a1.25,1.25,0,0,1-.32-.05l-2.84-1a1,1,0,0,1-.62-1.27,1,1,0,0,1,1.26-.62l2.84,1a1,1,0,0,1-.32,2ZM291,239a.86.86,0,0,1-.32-.05l-2.84-1a1,1,0,0,1-.63-1.26,1,1,0,0,1,1.27-.63l2.84,1A1,1,0,0,1,291,239Zm-7.58-2.57a1,1,0,0,1-.32-.06l-2.84-1a1,1,0,0,1-.62-1.27,1,1,0,0,1,1.27-.62l2.84,1a1,1,0,0,1-.33,2Zm-7.57-2.58a1.19,1.19,0,0,1-.32,0l-2.84-1a1,1,0,1,1,.64-1.89l2.84,1a1,1,0,0,1,.63,1.26A1,1,0,0,1,275.85,233.85Zm-7.57-2.57a.87.87,0,0,1-.32-.06l-2.85-1a1,1,0,0,1,.65-1.9l2.84,1a1,1,0,0,1-.32,1.95Z"/><path class="cls-14" d="M311.26,286.22h-.09l-3-.25a1,1,0,0,1,.17-2l3,.25a1,1,0,0,1-.08,2Zm-8-.67h-.09l-3-.25a1,1,0,1,1,.17-2l3,.25a1,1,0,0,1-.08,2Zm-8-.66h-.08l-3-.25a1,1,0,0,1-.91-1.08,1,1,0,0,1,1.08-.91l3,.25a1,1,0,0,1,.91,1.07A1,1,0,0,1,295.31,284.89Zm-8-.66h-.08l-3-.24a1,1,0,0,1,.16-2l3,.25a1,1,0,0,1-.08,2Zm-8-.66h-.09l-3-.25a1,1,0,0,1-.92-1.08,1,1,0,0,1,1.08-.91l3,.25a1,1,0,0,1-.08,2Zm-8-.67h-.09l-3-.25a1,1,0,0,1,.17-2l3,.25a1,1,0,0,1-.08,2Zm-8-.66h-.08l-3-.25a1,1,0,0,1-.91-1.08,1,1,0,0,1,1.08-.91l3,.24a1,1,0,0,1-.08,2Zm-8-.66h-.08l-3-.25a1,1,0,1,1,.16-2l3,.25a1,1,0,0,1-.08,2Z"/><path class="cls-10" d="M172.2,445.87a5.46,5.46,0,0,1-2.94-.86c-2.56-1.63-2.86-4.79-1.7-7.59C177.53,413.42,211,369,211,369H151.07a5.5,5.5,0,1,1,0-11H221a5.5,5.5,0,0,1,4.64,8.45s-34.73,57.24-46.92,76.46C177.65,444.57,174,445.87,172.2,445.87Z"/><path class="cls-3" d="M167.75,430.48l0,0C167.71,430.52,167.72,430.52,167.75,430.48Z"/><path class="cls-6" d="M221.09,352.75c-10-2.33-30.44-4.58-46.63-5.6V336.82H126.75V350c.18,13.18,5.49,23.82,20.05,23.82h.54c14.18,0,53.93-.27,53.93-.27-26,33.22-33.06,56.05-33.52,56.9A29.18,29.18,0,0,0,186,435.83s29.47-45.79,39.86-62C232.08,364.18,227.37,354.21,221.09,352.75Z"/><path class="cls-3" d="M168.3,438.94c5.08,3.42,12.11,2.58,12.33,2.58,0,0,15.36,8.12,23.39,8.11,3.43,0,4.74,7.48-3.17,7.5a117.06,117.06,0,0,1-25.28-2.58L175,457.1l-10.09,0c0-1.61-2.22-6.08-2.22-9.9C162.69,444,163.8,435.92,168.3,438.94Z"/><path class="cls-15" d="M127.17,354.21c-2.53-.65-3.4-6.16-3.21-8.77.59-8,3.21-21.78,2.79-32-.6-14.76-10.28-41.89,13.91-44.64,18.07-2.06,39.75,2.6,37,25.85-1.39,11.75,6.84,45.84-.88,55.77C170,359.25,135.2,356.25,127.17,354.21Z"/><path class="cls-9" d="M145.61,290.86H132v42.68h13.66c7.57,0,13.16-5.5,13.16-12.27V303.13C158.77,296.36,153.18,290.86,145.61,290.86Z"/><path class="cls-12" d="M350.7,333.22a12.79,12.79,0,0,0-.91-4.62,12.65,12.65,0,0,0-24.38,4.62Z"/><path class="cls-16" d="M136.26,290.86H92.59c-7.58,0-11.67,5.5-11.67,12.27v18.14c0,6.77,4.09,12.27,11.67,12.27h43.67c7.57,0,13.15-5.5,13.15-12.27V303.13C149.41,296.36,143.83,290.86,136.26,290.86Z"/><path class="cls-9" d="M184.54,373.64H138.05c-3.92,0-7.1,2.73-7.1,6.09s3.18,6.1,7.1,6.1h46.49c3.93,0,7.11-2.73,7.11-6.1S188.47,373.64,184.54,373.64Z"/><path class="cls-16" d="M158.38,373.64H95.13c-3.93,0-7.11,2.73-7.11,6.09s3.18,6.1,7.11,6.1h63.25c3.93,0,7.1-2.73,7.1-6.1S162.31,373.64,158.38,373.64Z"/><path class="cls-2" d="M119.44,339.69a1.23,1.23,0,0,0,1-1.2,1.25,1.25,0,0,0-1.24-1.24h-2.28v-6.81a5.58,5.58,0,0,0,3.11-5V308.86a5.6,5.6,0,1,0-11.2,0v16.59a5.6,5.6,0,0,0,3.11,5v6.81h-2.31a1.25,1.25,0,0,0-1.25,1.24,1.21,1.21,0,0,1,0,2.39,1.24,1.24,0,0,0,1,1.2,2.9,2.9,0,0,1-1,3.58,1.22,1.22,0,0,0,1,1.19,1.24,1.24,0,0,0-1,1.2,1.21,1.21,0,0,1,0,2.39,1.21,1.21,0,0,1,0,2.38,1.21,1.21,0,0,1,0,2.39,1.24,1.24,0,0,0,1,1.2,2.89,2.89,0,0,1-1,3.58,1.24,1.24,0,0,0,1.25,1.24h2.31s0,25,0,25.53c0,4.14-.08,8.42,3,11.48a12.74,12.74,0,0,0,6.71,3.22v23.73h-3.4v28.12H111a1.83,1.83,0,0,0-1.27.56l-6.17,6.92c-.85.8-.52,1.85.47,1.85h43.76c1,0,1.32-1.05.46-1.85l-6.16-6.92a1.85,1.85,0,0,0-1.27-.56h-7.15V425.19H130.3v-22h4a1.35,1.35,0,0,0,1.14.67h9.2a1.35,1.35,0,0,0,0-2.7h-9.2a1.33,1.33,0,0,0-1.14.68h-4v-4.7h-1.52v0c-5.31,0-8.8-.8-10.37-2.38s-1.55-4-1.51-7.93c0-.51,0-25.57,0-25.57h2.28a1.24,1.24,0,0,0,1.24-1.24,1.22,1.22,0,0,1,0-2.39,1.21,1.21,0,0,0-1-1.19,2.94,2.94,0,0,1,1-3.59,1.21,1.21,0,0,1,0-2.38,1.22,1.22,0,0,1,0-2.39,1.23,1.23,0,0,0-1-1.2,1.21,1.21,0,0,0,1-1.19,1.23,1.23,0,0,0-1-1.2,1.21,1.21,0,0,0,0-2.38,1.22,1.22,0,0,0,0-2.39Z"/><polygon class="cls-2" points="427.67 326.28 436.44 273.57 414.3 213.6 412.53 214.25 434.5 273.75 425.81 325.97 427.67 326.28"/><polygon class="cls-2" points="422.79 326.28 431.57 273.57 409.42 213.6 407.65 214.25 429.63 273.75 420.94 325.97 422.79 326.28"/><path class="cls-3" d="M434.59,280.68a7.56,7.56,0,1,1,3.9-9.95A7.55,7.55,0,0,1,434.59,280.68Z"/><path class="cls-7" d="M432.9,276.81a3.33,3.33,0,1,1,1.72-4.39A3.33,3.33,0,0,1,432.9,276.81Z"/><path class="cls-7" d="M415.46,208.25h0a6.63,6.63,0,0,0-9.21-1.69l-6.4,4.43a6.61,6.61,0,0,0-1.69,9.2h0a6.61,6.61,0,0,0,9.2,1.69l6.41-4.42A6.63,6.63,0,0,0,415.46,208.25Z"/><path class="cls-17" d="M390.9,233.09a6.49,6.49,0,1,1,1.66-9A6.49,6.49,0,0,1,390.9,233.09Z"/><path class="cls-3" d="M401.54,248.31A25.4,25.4,0,0,0,373,206.91Z"/><path class="cls-3" d="M441.49,333.31c-.46-5.17-9.3-9.29-20.14-9.29s-19.69,4.12-20.15,9.29Z"/><path class="cls-3" d="M230.49,277.74a7.81,7.81,0,0,0,7.8,7.81h0v4.07a1.7,1.7,0,0,0,1.7,1.7H254.2a1.7,1.7,0,0,0,1.69-1.7V267.89a1.7,1.7,0,0,0-1.69-1.7H240a1.7,1.7,0,0,0-1.7,1.7v2.05h0A7.81,7.81,0,0,0,230.49,277.74Zm3.3,0a4.51,4.51,0,0,1,4.5-4.5h0v9h0A4.51,4.51,0,0,1,233.79,277.74Z"/><g class="cls-18"><path class="cls-4" d="M235.45,252.18H251a3.2,3.2,0,0,0,3.19-3.19h0A3.21,3.21,0,0,0,251,245.8H235.45a3.21,3.21,0,0,0-3.19,3.19h0A3.2,3.2,0,0,0,235.45,252.18Z"/><path class="cls-4" d="M231.53,264.6h24.7a3.21,3.21,0,0,0,3.2-3.19h0a3.21,3.21,0,0,0-3.2-3.2h-24.7a3.2,3.2,0,0,0-3.19,3.2h0A3.2,3.2,0,0,0,231.53,264.6Z"/><path class="cls-4" d="M239.09,255.57v-.73a2.83,2.83,0,0,0-2.82-2.83h12.84a2.83,2.83,0,0,0-2.83,2.83v.73a2.83,2.83,0,0,0,2.83,2.82H236.27A2.83,2.83,0,0,0,239.09,255.57Z"/></g><path class="cls-3" d="M518.12,439.52a2.89,2.89,0,0,1-2.89-2.89v-72.1a2.89,2.89,0,0,1,5.78,0v72.1A2.89,2.89,0,0,1,518.12,439.52Z"/><polygon class="cls-2" points="529.37 462.2 506.88 462.2 498.42 436.8 537.82 436.8 529.37 462.2"/><path class="cls-6" d="M522.52,348.14c0,6.52-2,11.81-4.4,11.81s-4.4-5.29-4.4-11.81,4.4-16.19,4.4-16.19S522.52,341.62,522.52,348.14Z"/><path class="cls-19" d="M511.75,367.91c3.73,3.73,5.62,7.87,4.23,9.26s-5.53-.5-9.26-4.23S500,361.18,500,361.18,508,364.19,511.75,367.91Z"/><path class="cls-6" d="M509.61,384c5.47,5.47,8.25,11.56,6.22,13.6s-8.13-.74-13.61-6.21-9.89-17.28-9.89-17.28S504.14,378.57,509.61,384Z"/><path class="cls-19" d="M507.67,404.83c7.23,7.24,10.91,15.29,8.22,18s-10.75-1-18-8.22-13.09-22.86-13.09-22.86S500.43,397.59,507.67,404.83Z"/><path class="cls-6" d="M524.49,367.91c-3.72,3.73-5.62,7.87-4.23,9.26s5.53-.5,9.26-4.23,6.73-11.76,6.73-11.76S528.22,364.19,524.49,367.91Z"/><path class="cls-19" d="M526.63,384c-5.47,5.47-8.25,11.56-6.21,13.6s8.13-.74,13.6-6.21,9.89-17.28,9.89-17.28S532.1,378.57,526.63,384Z"/><path class="cls-6" d="M528.57,404.83c-7.23,7.24-10.91,15.29-8.22,18s10.76-1,18-8.22,13.09-22.86,13.09-22.86S535.81,397.59,528.57,404.83Z"/><polygon class="cls-3" points="538.91 283.66 520.89 283.66 516.13 264.41 543.67 264.41 538.91 283.66"/><path class="cls-3" d="M532,264h-4.16V211.67a2.08,2.08,0,0,1,2.08-2.08h0a2.08,2.08,0,0,1,2.08,2.08Z"/><rect class="cls-3" x="514.27" y="263.44" width="31.25" height="6.39"/><path class="cls-19" d="M531.44,245.11l3.71,1.29a3.15,3.15,0,1,0,2.07-6L536,240a3.14,3.14,0,0,0-4,1.94l-.88,2.52A.49.49,0,0,0,531.44,245.11Z"/><path class="cls-19" d="M521.79,249.81l-1.94.67a5.14,5.14,0,0,0,3.38,9.71l6.06-2.11a.77.77,0,0,0,.48-1L528.33,253A5.14,5.14,0,0,0,521.79,249.81Z"/><path class="cls-3" d="M524.39,234.74l-1.19.42a3.15,3.15,0,1,0,2.07,6l3.72-1.3a.47.47,0,0,0,.29-.6l-.88-2.53A3.15,3.15,0,0,0,524.39,234.74Z"/><path class="cls-3" d="M538.73,249.82l-1.22-.9a3.81,3.81,0,0,0-5.31.8l-1.91,2.6a.57.57,0,0,0,.12.8l3.81,2.81a3.8,3.8,0,1,0,4.51-6.11Z"/><path class="cls-19" d="M531.44,224l3.71,1.29a3.15,3.15,0,1,0,2.07-5.95l-1.19-.41a3.14,3.14,0,0,0-4,1.94l-.88,2.52A.49.49,0,0,0,531.44,224Z"/><path class="cls-19" d="M525.39,226.88l-.71.25a1.88,1.88,0,0,0,1.24,3.56l2.22-.78a.27.27,0,0,0,.17-.36l-.52-1.51A1.89,1.89,0,0,0,525.39,226.88Z"/><path class="cls-3" d="M524.39,213.59l-1.19.41a3.15,3.15,0,0,0,2.07,6l3.72-1.3a.47.47,0,0,0,.29-.6l-.88-2.53A3.15,3.15,0,0,0,524.39,213.59Z"/><path class="cls-3" d="M538.13,229.12l-1-.75a3.15,3.15,0,0,0-4.4.66l-1.59,2.15a.48.48,0,0,0,.1.67l3.16,2.33a3.15,3.15,0,1,0,3.74-5.06Z"/><path class="cls-10" d="M234.11,287.2c4-6.16,1.64-13.53,2.11-14.3.12-.19.11-.54,1-.36,2.39.51,4.17,8.21,4.35,9.61a53.41,53.41,0,0,0,6.51-3.93c4.38-3,11-4.73,11.64.86.44,4,.05,4.88-8.5,10-1.29.78-7.54,3.73-10.41,5.59Z"/><path class="cls-10" d="M158.6,209.5H145.92a13.33,13.33,0,0,0-13.33,13.34v26.1c0,7,2.69,7.85,7.95,11.42.31,2.63-.12,6.94-1.21,8.66-1.43,2.25,19.87,5,18.62,1.31-.8-2.38-.81-7.41,1.58-7.41,7.88,0,12.87-6.73,13.63-14.2,1.44-14.26-1.15-23.73-1.22-25.88A13.5,13.5,0,0,0,158.6,209.5Z"/><path class="cls-20" d="M172.62,213.12a25.13,25.13,0,0,0-21-11.29h-2.46A25.33,25.33,0,0,0,123.89,227c0,1.26,0,3,0,10.46A31.11,31.11,0,0,0,127,248.82c2.22,4.73,7.7,10.58,13.83,10.58,7.25,0,13.81-7.74,15.73-12.52,1.72-4.25,1.34-9.9,1.34-17,10.27.53,12.58-1.24,14.56-3.41C175.46,223.1,175.37,217.18,172.62,213.12Z"/><path class="cls-15" d="M244.31,296.77c-2.29,3.92-26.53,20.12-36.06,27.06-2.77,2-10.92,3-13.7,1-10.24-7.37-34.6-25.86-35.71-35.47-.39-3.4,3-18.21,6.59-16.29,13.5,7.21,35.47,34.58,35.47,34.58s21.42-15.19,33.29-21C238.62,284.46,247,292.15,244.31,296.77Z"/></g></g></svg>